<mxfile host="Electron" modified="2024-05-16T17:47:48.256Z" agent="Mozilla/5.0 (Windows NT 10.0; Win64; x64) AppleWebKit/537.36 (KHTML, like Gecko) draw.io/24.0.4 Chrome/120.0.6099.109 Electron/28.1.0 Safari/537.36" etag="rgaKasE4OU4MGttwsVk4" version="24.0.4" type="device">
  <diagram name="Страница — 1" id="hpcqmDAEL-qFYl_b-NKz">
    <mxGraphModel dx="1036" dy="1775" grid="1" gridSize="10" guides="1" tooltips="1" connect="1" arrows="1" fold="1" page="1" pageScale="1" pageWidth="827" pageHeight="1169" math="0" shadow="0">
      <root>
        <mxCell id="0" />
        <mxCell id="1" parent="0" />
        <mxCell id="POXndRT3YnSwv3Ul7oUL-1" value="Клиент" style="shape=umlActor;verticalLabelPosition=bottom;verticalAlign=top;html=1;outlineConnect=0;" parent="1" vertex="1">
          <mxGeometry x="570" y="330" width="30" height="60" as="geometry" />
        </mxCell>
        <mxCell id="POXndRT3YnSwv3Ul7oUL-2" value="Менеджер&amp;nbsp;" style="shape=umlActor;verticalLabelPosition=bottom;verticalAlign=top;html=1;outlineConnect=0;" parent="1" vertex="1">
          <mxGeometry x="1280" y="260" width="30" height="60" as="geometry" />
        </mxCell>
        <mxCell id="POXndRT3YnSwv3Ul7oUL-7" value="Чат клиента с менеджером" style="ellipse;whiteSpace=wrap;html=1;" parent="1" vertex="1">
          <mxGeometry x="800" y="430" width="180" height="60" as="geometry" />
        </mxCell>
        <mxCell id="POXndRT3YnSwv3Ul7oUL-21" value="Управление заявками" style="ellipse;whiteSpace=wrap;html=1;" parent="1" vertex="1">
          <mxGeometry x="910" y="280" width="180" height="50" as="geometry" />
        </mxCell>
        <mxCell id="POXndRT3YnSwv3Ul7oUL-22" value="Отклонение заявки" style="ellipse;whiteSpace=wrap;html=1;" parent="1" vertex="1">
          <mxGeometry x="600" y="180" width="170" height="40" as="geometry" />
        </mxCell>
        <mxCell id="POXndRT3YnSwv3Ul7oUL-23" value="Одобрение заявки" style="ellipse;whiteSpace=wrap;html=1;" parent="1" vertex="1">
          <mxGeometry x="710" y="110" width="170" height="40" as="geometry" />
        </mxCell>
        <mxCell id="POXndRT3YnSwv3Ul7oUL-24" value="+&quot;Use&quot;" style="endArrow=open;endSize=12;dashed=1;html=1;rounded=0;exitX=0.995;exitY=0.76;exitDx=0;exitDy=0;exitPerimeter=0;entryX=0.393;entryY=-0.072;entryDx=0;entryDy=0;entryPerimeter=0;" parent="1" source="POXndRT3YnSwv3Ul7oUL-23" target="POXndRT3YnSwv3Ul7oUL-21" edge="1">
          <mxGeometry width="160" relative="1" as="geometry">
            <mxPoint x="966" y="310" as="sourcePoint" />
            <mxPoint x="980" y="170" as="targetPoint" />
          </mxGeometry>
        </mxCell>
        <mxCell id="POXndRT3YnSwv3Ul7oUL-25" value="+&quot;Use&quot;" style="endArrow=open;endSize=12;dashed=1;html=1;rounded=0;exitX=1;exitY=0.5;exitDx=0;exitDy=0;entryX=0;entryY=0;entryDx=0;entryDy=0;" parent="1" source="POXndRT3YnSwv3Ul7oUL-22" target="POXndRT3YnSwv3Ul7oUL-21" edge="1">
          <mxGeometry width="160" relative="1" as="geometry">
            <mxPoint x="886" y="400" as="sourcePoint" />
            <mxPoint x="870" y="230" as="targetPoint" />
          </mxGeometry>
        </mxCell>
        <mxCell id="POXndRT3YnSwv3Ul7oUL-33" value="" style="endArrow=classic;html=1;rounded=0;entryX=0.071;entryY=0.78;entryDx=0;entryDy=0;entryPerimeter=0;" parent="1" target="POXndRT3YnSwv3Ul7oUL-21" edge="1">
          <mxGeometry width="50" height="50" relative="1" as="geometry">
            <mxPoint x="630" y="372.11" as="sourcePoint" />
            <mxPoint x="705.22" y="347.8900000000002" as="targetPoint" />
          </mxGeometry>
        </mxCell>
        <mxCell id="POXndRT3YnSwv3Ul7oUL-39" value="" style="endArrow=classic;html=1;rounded=0;entryX=1;entryY=0.5;entryDx=0;entryDy=0;" parent="1" target="POXndRT3YnSwv3Ul7oUL-21" edge="1">
          <mxGeometry width="50" height="50" relative="1" as="geometry">
            <mxPoint x="1270" y="305" as="sourcePoint" />
            <mxPoint x="1190" y="230" as="targetPoint" />
          </mxGeometry>
        </mxCell>
        <mxCell id="OjiDso5uCjIqZ7xK1kBr-2" value="extend" style="endArrow=open;endSize=12;dashed=1;html=1;rounded=0;exitX=0.744;exitY=0.003;exitDx=0;exitDy=0;exitPerimeter=0;entryX=0.413;entryY=1.036;entryDx=0;entryDy=0;entryPerimeter=0;" parent="1" source="POXndRT3YnSwv3Ul7oUL-7" target="POXndRT3YnSwv3Ul7oUL-21" edge="1">
          <mxGeometry width="160" relative="1" as="geometry">
            <mxPoint x="920" y="390" as="sourcePoint" />
            <mxPoint x="1000" y="400" as="targetPoint" />
            <Array as="points">
              <mxPoint x="970" y="370" />
            </Array>
          </mxGeometry>
        </mxCell>
        <mxCell id="OjiDso5uCjIqZ7xK1kBr-3" value="Регистрация заявки" style="ellipse;whiteSpace=wrap;html=1;" parent="1" vertex="1">
          <mxGeometry x="590" y="250" width="170" height="40" as="geometry" />
        </mxCell>
        <mxCell id="OjiDso5uCjIqZ7xK1kBr-5" value="Use" style="endArrow=open;endSize=12;dashed=1;html=1;rounded=0;exitX=0.965;exitY=0.765;exitDx=0;exitDy=0;exitPerimeter=0;" parent="1" source="OjiDso5uCjIqZ7xK1kBr-3" edge="1">
          <mxGeometry width="160" relative="1" as="geometry">
            <mxPoint x="730" y="300" as="sourcePoint" />
            <mxPoint x="910" y="300" as="targetPoint" />
          </mxGeometry>
        </mxCell>
        <mxCell id="OjiDso5uCjIqZ7xK1kBr-6" value="Управление работами" style="ellipse;whiteSpace=wrap;html=1;" parent="1" vertex="1">
          <mxGeometry x="1210" y="60" width="210" height="60" as="geometry" />
        </mxCell>
        <mxCell id="OjiDso5uCjIqZ7xK1kBr-7" value="Сотрудник" style="shape=umlActor;verticalLabelPosition=bottom;verticalAlign=top;html=1;outlineConnect=0;" parent="1" vertex="1">
          <mxGeometry x="1520" y="170" width="30" height="60" as="geometry" />
        </mxCell>
        <mxCell id="OjiDso5uCjIqZ7xK1kBr-9" value="" style="endArrow=classic;html=1;rounded=0;entryX=0.5;entryY=1;entryDx=0;entryDy=0;" parent="1" target="OjiDso5uCjIqZ7xK1kBr-6" edge="1">
          <mxGeometry width="50" height="50" relative="1" as="geometry">
            <mxPoint x="1300" y="240" as="sourcePoint" />
            <mxPoint x="1350" y="190" as="targetPoint" />
          </mxGeometry>
        </mxCell>
        <mxCell id="OjiDso5uCjIqZ7xK1kBr-10" value="" style="endArrow=classic;html=1;rounded=0;entryX=0.333;entryY=0.984;entryDx=0;entryDy=0;entryPerimeter=0;" parent="1" target="OjiDso5uCjIqZ7xK1kBr-15" edge="1">
          <mxGeometry width="50" height="50" relative="1" as="geometry">
            <mxPoint x="1560" y="170" as="sourcePoint" />
            <mxPoint x="1480" y="170" as="targetPoint" />
            <Array as="points" />
          </mxGeometry>
        </mxCell>
        <mxCell id="OjiDso5uCjIqZ7xK1kBr-11" value="Распределение работ" style="ellipse;whiteSpace=wrap;html=1;" parent="1" vertex="1">
          <mxGeometry x="990" y="-10" width="179" height="50" as="geometry" />
        </mxCell>
        <mxCell id="OjiDso5uCjIqZ7xK1kBr-13" value="Мониторинг и контроль исполнения работ" style="ellipse;whiteSpace=wrap;html=1;" parent="1" vertex="1">
          <mxGeometry x="1090" y="-180" width="179" height="50" as="geometry" />
        </mxCell>
        <mxCell id="OjiDso5uCjIqZ7xK1kBr-14" value="Просмотр перечня заявок" style="ellipse;whiteSpace=wrap;html=1;" parent="1" vertex="1">
          <mxGeometry x="1520" y="-80" width="179" height="50" as="geometry" />
        </mxCell>
        <mxCell id="OjiDso5uCjIqZ7xK1kBr-15" value="Отметка о результатах работы" style="ellipse;whiteSpace=wrap;html=1;" parent="1" vertex="1">
          <mxGeometry x="1580" y="40" width="179" height="50" as="geometry" />
        </mxCell>
        <mxCell id="OjiDso5uCjIqZ7xK1kBr-16" value="" style="endArrow=classic;html=1;rounded=0;entryX=0.447;entryY=1;entryDx=0;entryDy=0;entryPerimeter=0;" parent="1" target="OjiDso5uCjIqZ7xK1kBr-14" edge="1">
          <mxGeometry width="50" height="50" relative="1" as="geometry">
            <mxPoint x="1520" y="160" as="sourcePoint" />
            <mxPoint x="1520" y="65" as="targetPoint" />
            <Array as="points" />
          </mxGeometry>
        </mxCell>
        <mxCell id="OjiDso5uCjIqZ7xK1kBr-17" value="extend" style="endArrow=open;endSize=12;dashed=1;html=1;rounded=0;exitX=1;exitY=0.5;exitDx=0;exitDy=0;entryX=0.118;entryY=0.103;entryDx=0;entryDy=0;entryPerimeter=0;" parent="1" source="OjiDso5uCjIqZ7xK1kBr-11" target="OjiDso5uCjIqZ7xK1kBr-6" edge="1">
          <mxGeometry width="160" relative="1" as="geometry">
            <mxPoint x="1190" y="30" as="sourcePoint" />
            <mxPoint x="1350" y="30" as="targetPoint" />
          </mxGeometry>
        </mxCell>
        <mxCell id="OjiDso5uCjIqZ7xK1kBr-18" value="extend" style="endArrow=open;endSize=12;dashed=1;html=1;rounded=0;exitX=0.5;exitY=1;exitDx=0;exitDy=0;entryX=0.5;entryY=0;entryDx=0;entryDy=0;" parent="1" source="OjiDso5uCjIqZ7xK1kBr-13" target="OjiDso5uCjIqZ7xK1kBr-6" edge="1">
          <mxGeometry width="160" relative="1" as="geometry">
            <mxPoint x="1260" y="-10" as="sourcePoint" />
            <mxPoint x="1326" y="41" as="targetPoint" />
          </mxGeometry>
        </mxCell>
        <mxCell id="OjiDso5uCjIqZ7xK1kBr-19" value="+&quot;Use&quot;" style="endArrow=open;endSize=12;dashed=1;html=1;rounded=0;exitX=0;exitY=0.5;exitDx=0;exitDy=0;entryX=0.974;entryY=0.356;entryDx=0;entryDy=0;entryPerimeter=0;" parent="1" source="OjiDso5uCjIqZ7xK1kBr-14" target="OjiDso5uCjIqZ7xK1kBr-11" edge="1">
          <mxGeometry width="160" relative="1" as="geometry">
            <mxPoint x="1298" y="110" as="sourcePoint" />
            <mxPoint x="1190" y="-28" as="targetPoint" />
          </mxGeometry>
        </mxCell>
        <mxCell id="OjiDso5uCjIqZ7xK1kBr-20" value="+&quot;Use&quot;" style="endArrow=open;endSize=12;dashed=1;html=1;rounded=0;exitX=0.353;exitY=1.02;exitDx=0;exitDy=0;entryX=0.447;entryY=0;entryDx=0;entryDy=0;entryPerimeter=0;exitPerimeter=0;" parent="1" source="OjiDso5uCjIqZ7xK1kBr-13" target="OjiDso5uCjIqZ7xK1kBr-11" edge="1">
          <mxGeometry width="160" relative="1" as="geometry">
            <mxPoint x="1169" y="-103" as="sourcePoint" />
            <mxPoint x="883" y="-60" as="targetPoint" />
          </mxGeometry>
        </mxCell>
        <mxCell id="OjiDso5uCjIqZ7xK1kBr-21" value="+&quot;Use&quot;" style="endArrow=open;endSize=12;dashed=1;html=1;rounded=0;exitX=0.796;exitY=0.972;exitDx=0;exitDy=0;entryX=0;entryY=0;entryDx=0;entryDy=0;exitPerimeter=0;" parent="1" source="OjiDso5uCjIqZ7xK1kBr-13" target="OjiDso5uCjIqZ7xK1kBr-15" edge="1">
          <mxGeometry width="160" relative="1" as="geometry">
            <mxPoint x="1470" y="-15" as="sourcePoint" />
            <mxPoint x="1184" y="28" as="targetPoint" />
          </mxGeometry>
        </mxCell>
      </root>
    </mxGraphModel>
  </diagram>
</mxfile>
